<?xml version="1.0" encoding="UTF-8"?>
<svg xmlns="http://www.w3.org/2000/svg" width="392" height="96" fill-rule="evenodd">
  <path d="M88.496 53.674c-.677 0-1.28.15-1.73.452-3.3 5.504-6.243 7.917-11.207 7.917-4.287 0-7.22-1.734-8.876-5.052 5.115-9.576 8.65-17.417 8.65-28.2 0-18.623-10.53-28.048-29.26-28.048s-29.26 9.425-29.26 28.048c0 10.782 3.535 18.623 8.65 28.2-1.655 3.318-4.588 5.052-8.876 5.052-4.964 0-7.898-2.413-11.207-7.917-.45-.302-1.053-.452-1.73-.452-2.18 0-3.535 1.66-3.535 5.203 0 8.595 7.597 15.683 18.58 15.683 2.858 0 5.867-.452 9.177-1.66-4.363 10.857-9.177 13.12-15.645 11.536-1.655.83-2.18 2.564-2.18 3.92 0 3.62 3.76 7.087 11.508 7.087 11.132 0 19.857-7.012 23.242-21.94.376-.377.677-.68 1.28-.68s.903.302 1.28.68c3.385 14.93 12.1 21.94 23.242 21.94 7.747 0 11.508-3.468 11.508-7.087 0-1.357-.527-3.09-2.18-3.92-6.47 1.583-11.283-.68-15.645-11.536 3.3 1.206 6.318 1.66 9.177 1.66 10.982 0 18.58-7.087 18.58-15.683 0-3.544-1.354-5.203-3.535-5.203z" fill="#108f64"></path>
  <path d="M150.156 28.13H125V41.05h22.633v9.252H125v13.84h24.47v9.33h-35.48v-50.16c0-2.753 2.217-4.435 4.664-4.435h31.503v9.252zm23.627 6.117c10.093 0 16.9 5.658 16.9 15.905v23.322h-9.176v-4.97C178.83 72.096 174.7 74.4 169.12 74.4c-7.876 0-13.152-4.664-13.152-11.852 0-9.405 8.946-12.617 18.657-12.617a44.85 44.85 0 0 1 6.499.459v-.535c0-4.97-3.364-7.34-8.105-7.34-3.594 0-7.646 1.3-11.623 4.358l-4.435-6.5c4.13-3.9 10.476-6.117 16.822-6.117zm-2.14 32.42c5.658 0 9.1-4.282 9.482-10.17-1.988-.153-3.9-.23-5.735-.23-4.97 0-9.1 1.453-9.1 5.582 0 2.83 2.065 4.817 5.352 4.817zm40.755 7.646c-6.04 0-12.005-1.988-15.98-5.81l4.13-6.576c4.053 3.288 8.335 4.51 11.393 4.51 3.21 0 5.964-1.3 5.964-3.747 0-3.06-4.13-3.9-8.258-5.276-6.117-2.065-11.087-4.74-11.087-11.164 0-7.723 6.652-12.005 15.446-12.005 5.43 0 10.705 1.76 14.375 4.435l-3.976 6.5c-3.517-2.14-6.958-3.21-9.94-3.21-3.44 0-5.582 1.453-5.582 3.44 0 2.6 3.21 3.517 6.73 4.664 6.27 2.065 13.152 4.282 13.152 12.005 0 8.03-7.723 12.234-16.363 12.234zM260.34 35.24h10.63l-15.675 39.226c-2.6 6.5-6.805 14.3-15.6 14.3-3.517 0-6.805-1.223-9.252-3.44l3.67-7.188c1.453 1.147 3.06 1.835 5.047 1.835 3.06 0 4.894-1.912 6.423-5.43l.994-2.447-14.68-36.856H242.6l9.023 25.692 8.717-25.692zm72.876-16.363h11.164l-12.464 51.002c-.84 3.44-4.51 4.435-7.723 4.435s-7.035-.84-7.876-4.435l-7.952-29.515-7.952 29.515c-.84 3.517-4.74 4.435-7.876 4.435-3.21 0-6.882-.994-7.646-4.435l-12.31-51.002h11.546l9.1 42.59 10.17-36.55h10.17l10.323 36.78 9.33-42.82zm39.712 0c12.617 0 18.8 8.105 18.8 17.97 0 11.546-6.882 17.97-19.575 17.97h-9.252v18.657H351.9v-50.16c0-2.523 1.988-4.435 4.51-4.435h16.516zm-1.333 26.84c5.658 0 8.87-2.6 8.87-8.946 0-5.43-3.21-8.717-8.946-8.717h-8.793v17.663h8.87z" fill="#2b3a47"></path>
</svg>